# xmcd CD database file
#
# Track frame offsets:
#	150
#	21084
#	32081
#	45656
#	59216
#	70630
#	82791
#	98239
#	111629
#
# Disc length: 1573 seconds
#
# Revision: 0
# Processed by: cddbd v1.5.1PL0 Copyright (c) Steve Scherf et al.
# Submitted via: CDex 1.51
#
DISCID=75062309
DTITLE=Herby Wallace and Thumbs Carllile - Christmas Our Way
DYEAR=1900
DGENRE=Country
TTITLE0=The Christmas Song
TTITLE1=Here Comes Santa Claus
TTITLE2=White Christmas
TTITLE3=Away In A Manger
TTITLE4=Rudolph the Red Nose Reindeer
TTITLE5=Santa Claus Is Coming To Town
TTITLE6=Blue Christmas
TTITLE7=I'll Be Home For Chrismas
TTITLE8=God Rest Ye Merry Gentlemen
EXTD=
EXTT0=
EXTT1=
EXTT2=
EXTT3=
EXTT4=
EXTT5=
EXTT6=
EXTT7=
EXTT8=
PLAYORDER=
